<svg class="hidden">
    <symbol id="youtube" viewBox="0 0 32 32"
        xmlns="http://www.w3.org/2000/svg">
        <path d="M22.396 21.104H21.2v-.707c0-.299.298-.597.596-.597h.103c.302 0 .603.298.603.597v.707h-.106zM17.795 19.6c-.298 0-.6.2-.6.498v3.405c0 .298.205.5.6.5.301 0 .602-.202.602-.5v-3.5c-.002-.203-.301-.403-.602-.403zm7.406-1.9v6.497c0 1.604-1.402 2.803-3.003 2.803H9.797c-1.6 0-2.998-1.3-2.998-2.803V17.7c0-1.599 1.301-2.802 2.998-2.802H22.1c1.699 0 3.101 1.204 3.101 2.802zm-14.502 7.204v-6.809H12.2v-.992H8.1v.992h1.299v6.899l1.3-.09zm4.501-5.8h-1.203v4.492c0 .204-.197.301-.397.301-.101 0-.302-.097-.302-.395v-4.506h-1.3V23.8c0 .298 0 .696.301.899.602.398 1.698-.096 1.901-.697v.795h1v-5.693zm4.098 4.098V20.2c0-1.203-.901-1.899-1.998-.902v-2.299h-1.302v7.799h1.001l.104-.495c1.4 1.295 2.195.397 2.195-1.101zm3.997-.402h-.99v.703c0 .298-.205.5-.509.5h-.198c-.302 0-.494-.202-.494-.5v-1.401h2.191v-2.396c-.193-1.104-1.697-1.309-2.492-.706-.203.202-.408.405-.5.706-.103.3-.207.691-.207 1.294v1.8c0 3.096 3.5 2.705 3.199 0zm-4.9-9.801c.107.203.201.3.303.399.104.104.301.104.501.104.204 0 .298-.104.504-.203.097-.097.3-.3.396-.498v.498H21.5V7.301h-1.104v4.698c0 .301-.192.502-.494.502-.301 0-.498-.201-.498-.502V7.4h-1.198v5.101c.093.197.093.3.189.498zm-4.297-3.397c0-.6 0-1 .103-1.401.097-.3.301-.599.499-.798a1.66 1.66 0 0 1 .999-.301c.3 0 .598.098.803.2.197.101.396.3.498.498.104.203.195.401.301.603 0 .199.102.5.102.998V11c0 .602 0 .999-.102 1.202 0 .299-.104.496-.301.698a1.237 1.237 0 0 1-.498.498 1.86 1.86 0 0 1-.803.201c-.298 0-.599 0-.8-.099-.199-.103-.397-.203-.5-.399a5.108 5.108 0 0 1-.299-.703c-.102-.299-.102-.7-.102-1.197l.1-1.599zm1.102 2.397c0 .301.301.603.601.603.301 0 .596-.302.596-.603V8.798c0-.301-.295-.599-.596-.599-.3 0-.601.298-.601.599v3.201zM11.3 13.6h1.3V9.001L14.2 5h-1.503L11.9 8.001 10.999 5H9.6l1.7 4.001V13.6z"/>
    </symbol>

    <symbol id="telegram" viewBox="0 0 32 32"
        xmlns="http://www.w3.org/2000/svg">
        <path d="M16 0.5c-8.563 0-15.5 6.938-15.5 15.5s6.938 15.5 15.5 15.5c8.563 0 15.5-6.938 15.5-15.5s-6.938-15.5-15.5-15.5zM23.613 11.119l-2.544 11.988c-0.188 0.85-0.694 1.056-1.4 0.656l-3.875-2.856-1.869 1.8c-0.206 0.206-0.381 0.381-0.781 0.381l0.275-3.944 7.181-6.488c0.313-0.275-0.069-0.431-0.482-0.156l-8.875 5.587-3.825-1.194c-0.831-0.262-0.85-0.831 0.175-1.231l14.944-5.763c0.694-0.25 1.3 0.169 1.075 1.219z"/>

    </symbol>

    <symbol id="instagram"
        xmlns="http://www.w3.org/2000/svg"
        xmlns:xlink="http://www.w3.org/1999/xlink" viewBox="-143 145 512 512" xml:space="preserve">
        <g>
            <path d="M113,446c24.8,0,45.1-20.2,45.1-45.1c0-9.8-3.2-18.9-8.5-26.3c-8.2-11.3-21.5-18.8-36.5-18.8s-28.3,7.4-36.5,18.8
		c-5.3,7.4-8.5,16.5-8.5,26.3C68,425.8,88.2,446,113,446z"/>
            <polygon points="211.4,345.9 211.4,308.1 211.4,302.5 205.8,302.5 168,302.6 168.2,346 	"/>
            <path d="M183,401c0,38.6-31.4,70-70,70c-38.6,0-70-31.4-70-70c0-9.3,1.9-18.2,5.2-26.3H10v104.8C10,493,21,504,34.5,504h157
		c13.5,0,24.5-11,24.5-24.5V374.7h-38.2C181.2,382.8,183,391.7,183,401z"/>
            <path d="M113,145c-141.4,0-256,114.6-256,256s114.6,256,256,256s256-114.6,256-256S254.4,145,113,145z M241,374.7v104.8
		c0,27.3-22.2,49.5-49.5,49.5h-157C7.2,529-15,506.8-15,479.5V374.7v-52.3c0-27.3,22.2-49.5,49.5-49.5h157
		c27.3,0,49.5,22.2,49.5,49.5V374.7z"/>
        </g>
    </symbol>

    <symbol id="facebook" viewBox="0 0 24 24"
        xmlns="http://www.w3.org/2000/svg">
        <path d="M12 2.03998C6.5 2.03998 2 6.52998 2 12.06C2 17.06 5.66 21.21 10.44 21.96V14.96H7.9V12.06H10.44V9.84998C10.44 7.33998 11.93 5.95998 14.22 5.95998C15.31 5.95998 16.45 6.14998 16.45 6.14998V8.61998H15.19C13.95 8.61998 13.56 9.38998 13.56 10.18V12.06H16.34L15.89 14.96H13.56V21.96C15.9164 21.5878 18.0622 20.3855 19.6099 18.57C21.1576 16.7546 22.0054 14.4456 22 12.06C22 6.52998 17.5 2.03998 12 2.03998Z"/>
    </symbol>
</svg> 