<?xml version="1.0" encoding="utf-8"?>
<svg version="1.1" id="Layer_1" xmlns="http://www.w3.org/2000/svg" xmlns:xlink="http://www.w3.org/1999/xlink" x="0px" y="0px"
	 viewBox="0 0 2662.087 1504.393" enable-background="new 0 0 2662.087 1504.393" xml:space="preserve">
<path d="M2609.835,1048.905c-1.785-22.423-5.565-44.761-11.465-66.795c-2.612-9.754-5.03-19.629-8.873-29.053
	c-4.044-9.914-7.356-20.146-11.77-29.886c-7.532-16.622-15.94-32.821-26.027-48.09c-6.268-9.487-12.096-19.29-18.785-28.467
	c-5.795-7.952-11.544-16.003-18.342-23.194c-4.149-4.389-8.458-8.716-12.348-13.241c-6.647-7.734-14.52-14.11-21.571-21.362
	c-5.587-5.746-12.998-9.552-18.717-15.335c-2.655-2.684-6.652-3.929-9.026-7.853c5.946-1.484,11.232-3.123,16.64-4.074
	c7.388-1.3,14.378-3.61,21.062-6.919c4.124-2.041,5.126-4.134,4.459-8.431c-0.488-3.147-2.11-5.735-4.599-7.422
	c-2.509-1.701-4.573-3.808-6.821-5.76c-3.696-3.209-7.377-6.465-11.325-9.344c-4.256-3.105-8.896-5.678-13.218-8.698
	c-8.607-6.016-17.876-10.916-27.089-15.851c-7.83-4.194-15.858-8.033-24.095-11.508c-6.675-2.815-13.246-6.074-20.014-8.711
	c-9.194-3.583-18.667-6.444-27.961-9.779c-12.314-4.419-25.096-7.047-37.748-10.192c-10.208-2.537-20.82-2.973-30.907-6.067
	c-1.051-0.322-1.961,0.153-2.901,0.079c-7.675-0.608-15.286-1.837-22.993-2.206c-2.527-0.121-2.697-1.826-1.385-4.4
	c1.233-2.42,3.036-4.102,5.1-5.711c3.53-2.752,5.383-6.246,4.785-10.928c-0.356-2.787-0.7-5.496-1.833-8.125
	c-2.738-6.355-6.505-12.105-10.051-18.003c-2.966-4.933-7.232-9.481-6.518-15.962c4.835-1.373,9.627-0.487,13.678,0.374
	c8.089,1.718,16.102,0.643,24.087,1.431c10.859,1.072,31.105,3.534,40.098-3.697c0.819-0.658,1.113-1.832,0.435-2.704
	c-3.298-4.239-4.274-9.278-5.626-14.319c-2.031-7.577-6.878-14.063-9.197-21.602c-1.319-4.289-2.91-8.494-4.312-12.758
	c-3.286-9.757-8.391-19.335-12.966-28.533c-60.338-121.325-142.074-230.738-236.717-327.417
	c-11.692-11.943-23.594-23.681-35.701-35.202c-9.958-9.476-18.404-21.846-29.767-29.711c-5.838-4.041-10.788-9.057-15.972-13.669
	c-6.177-5.495-12.159-11.23-18.554-16.522c-1.894-1.568-4.356-1.911-6.049-3.698c-6.659-7.025-12.266-15.403-22.582-17.797
	c-0.174-0.04-0.352-0.209-0.461-0.365c-2.832-4.04-7.452-5.246-11.617-6.926c-6.955-2.806-13.882-5.474-21.676-5.934
	c-14.429-0.851-39.674-1.683-51.504,8.012c-3.149,2.581-5.208,6.726-4.532,10.741c0.199,1.181,0.676,2.312,1.351,3.309
	c-7.799-3.128-16.43-4.197-24.746-2.96c-16.689,8.555-33.71,18.465-47.759,31.002c-1.712,1.527-2.529,3.231-2.822,5.636
	c-0.676,5.554-2.773,10.711-5.68,15.529c-2.286,3.789-3.905,7.734-3.616,12.38c0.247,3.973,0.249,8.022-0.236,11.965
	c-0.737,5.996,1.671,11.341,4.69,15.656c3.729,5.331,6.568,11.357,11.548,15.926c3.753,3.444,3.095,6.768-0.726,10.145
	c-5.206,4.601-8.369,10.224-8.181,17.37c0.053,2.041,0.035,4.008-1.429,5.636c-2.715,3.022-4.415,6.754-5.667,10.422
	c-2.252,6.6-8.527,11.738-7.175,19.658c0.209,1.226-1.05,2.084-1.683,3.082c-3.931,6.199-4.511,12.923-3.523,20.046
	c1.189,8.568,6.428,15.016,11.994,20.635c7.52,7.591,14.361,15.778,21.772,23.453c8.129,8.419,18.01,13.898,28.25,18.625
	c6.351,2.932,13.195,5.423,20.361,6.287c0.575,0.069,1.19,0.223,1.678,0.517c1.11,0.671,1.147,1.563,0.107,2.314
	c-0.455,0.329-1.149,0.305-1.69,0.542c-5.533,2.422-12.007,2.671-16.619,7.272c-0.639,0.638-1.839,0.684-2.739,1.094
	c-9.434,4.303-12.782,6.978-11.214,18.559c0.407,3.006,0.242,5.678-2.606,7.968c-2.98,2.397-3.698,6.035-2.569,9.787
	c1.591,5.289-1.221,10.628,0.243,15.933c0.16,0.58-0.526,1.447-0.924,2.119c-1.776,2.994-1.044,5.718,0.791,8.368
	c1.462,2.112,2.996,4.185,4.288,6.399c1.238,2.121,0.552,3.744-1.726,3.8c-6.147,0.151-12.195,1.754-18.394,1.123
	c-3.517-0.358-5.932-2.141-5.749-5.492c0.503-9.218-4.614-16.063-8.976-23.369c-18.022-30.182-48.756-47.857-82.454-55.425
	c-35.453-7.962-71.199-16.164-106.981-22.511c-40.906-7.256-82.064-13.094-123.374-17.501c-36.238-3.866-72.593-6.631-108.999-8.287
	c-17.464-0.794-35.691-2.696-53.151-1.586c-16.098,1.024-35.998,7.314-51.391,12.488c-17.493,5.88-34.058,14.5-48.957,25.386
	c-42.153,30.801-68.188,83.417-83.23,132.34c-0.725,2.359-2.409,4.081-3.482,6.203c-1.159,2.293-3.275,2.846-5.531,1.208
	c-1.452-1.054-2.899-2.14-4.205-3.365c-3.123-2.929-6.908-5.51-10.802-6.112c-81.106-12.532-162.282-34.845-242.383-53.972
	c-12.113-2.893-24.108-6.29-36.113-9.618c-12.567-3.483-25.086-7.141-37.626-10.724c-3.752-1.072-4.612-2.268-2.638-5.243
	c5.221-7.868,4.976-16.573,4.482-25.344c-0.786-13.959-4.498-27.379-8.69-40.56c-1.808-5.685-4.194-11.388-6.898-16.898
	c-1.795-3.657-4.429-6.328-6.545-9.53c-4.699-7.113-9.185-14.366-14.928-20.749c-5.836-6.487-12.927-10.127-21.689-10.273
	c-5.591-0.093-11.19-0.2-16.775-0.003c-4.781,0.169-8.573-1.29-11.19-5.391c-0.985-1.544-2.554-2.446-3.83-3.647
	c-2.835-2.669-7.071-3-9.598-5.681c-5.557-5.897-11.624-11.179-17.803-16.372c-0.791-0.665-1.504-1.25-2.554-1.349
	c-3.943-0.372-7.899-1.172-11.823-1.038c-5.055,0.173-9.741-1.088-14.582-2.115c-8.881-1.886-17.653-4.583-26.963-3.923
	c-4.9,0.347-9.971,0.595-14.643-1.327c-3.286-1.352-6.584-1.24-9.953-1.244c-4.989-0.006-9.979-0.109-14.968-0.067
	c-4.971,0.042-10.184-1.395-14.518,2.672c-0.847,0.794-2.479,0.827-3.924,0.933c-6.576,0.48-13.078-0.511-19.602-0.579
	c-28.774-0.3-57.547,0.494-86.295,1.681c-14.376,0.594-28.747,1.289-43.118,1.992c-13.142,0.644-27.751,3.483-40.683,0.642
	c0.008-0.023,0.018-0.044,0.026-0.067c-13.648-1.456-25.782-8.02-39.326-10.568c-15.811-2.974-28.338-1.097-42.895,4.597
	c-5.356,2.096-10.899,3.077-16.3,4.577c-4.248,1.18-9.083,0.571-13.628,0.287c-8.476-0.53-16.089,3.865-24.43,3.981
	c-1.248,0.017-2.197,1.105-2.694,2.18c-1.162,2.514-2.633,3.932-5.593,2.63c-0.632-0.278-1.611-0.153-2.292,0.125
	c-5.631,2.3-11.759,1.855-17.53,3.233c-8.85,2.113-28.617,6.628-25.6,19.775c0.816,3.555,2.955,6.644,4.383,10
	c1.686,3.96,2.369,8.262,3.038,12.514c3.817,15.267,2.692,30.662,8.414,45.557c2.612,6.8,8.435,10.736,14.836,12.875
	c10.421,3.481,21.311,2.505,31.969,4.354c11.304,1.961,21.93,4.598,33.522,4.985c6.472,0.216,23.361,2.465,28.452-1.889
	c0.686-0.587,1.908,0.071,2.803,0.553c3.856,2.076,7.93,3.832,11.528,6.284c7.711,5.255,16.032,9.595,24.22,13.798
	c7.81,4.009,15.308,8.455,22.825,12.897c5.478,3.237,11.619,5.183,16.789,8.996c1.585,1.169,3.137,2.387,4.914,3.362
	c5.673,3.114,11.695,5.524,17.105,9.207c5.559,3.784,11.718,6.68,17.321,10.407c4.465,2.97,9.225,5.187,13.993,7.551
	c7.066,3.502,13.375,8.347,20.468,11.985c11.61,5.953,23.049,12.275,34.53,18.48c8.027,4.338,15.775,9.249,24.03,13.237
	c1.959,0.946,3.582,2.894,5.597,3.363c7.133,1.658,12.741,6.253,19.113,9.347c5.365,2.604,10.524,5.579,15.678,8.599
	c6.125,3.589,12.916,6.021,19.205,9.358c3.512,1.864,6.711,4.343,10.69,5.185c2.712,0.574,3.394,2.09,3.16,4.746
	c-1.039,11.761,4.836,22.241,12.825,30.448c8.56,8.795,11.306,17.891,16.138,29.292c7.665,18.086,16.665,35.607,26.902,52.373
	c4.641,7.6,9.715,14.661,15.04,21.673c2.232,2.939,12.855,12.07,3.695,12.07c-5.014-0.14-13.161-5.919-17.911-7.901
	c-11.594-4.838-23.366-9.25-35.283-13.226c-14.961-4.991-30.15-9.295-45.506-12.892c-7.767-1.819-15.911-4.205-23.859-4.994
	c-7.396-0.734-14.382,1.988-21.883,1.936c-0.94-0.007-1.932,0.518-2.818,0.961c-3.622,1.812-4.156,5.08-1.248,8.034
	c1.555,1.58,3.073,3.146,3.763,5.303c2.315,7.248-22.907,2.183-27.745,1.948c-12.783-0.621-25.6-0.547-38.375,0.215
	c-35.947,2.145-73.162,9.338-106.877,22.133c-9.036,3.43-17.173,8.706-25.646,13.268c-7.329,3.946-15.157,5.314-22.286,9.267
	c-16.389,9.084-32.096,19.645-47.137,30.799c-17.574,13.033-34.25,27.277-49.867,42.601c-14.454,14.182-32.347,30.19-42.945,47.542
	c-10.114,16.558-21.697,31.752-31.323,48.617c-10.091,17.68-18.842,36.124-26.181,55.112
	c-16.122,41.712-24.222,84.797-26.898,129.272c-2.558,42.516,2.72,85.379,14.792,126.196c6.042,20.428,13.779,40.353,23.069,59.524
	c34.802,71.818,87.236,129.767,154.734,172.017c4.849,3.035,9.833,5.87,14.79,8.724c73.793,42.499,161.763,56.32,245.107,41.561
	c11.77-2.084,23.505-4.305,35.181-6.872c46.695-10.266,89.737-31.225,128.869-58.272c30.034-20.759,53.346-46.238,78.094-72.636
	c7.257-7.741,14.47-15.426,18.845-25.285c0.398-0.897,1.072-1.673,1.631-2.497c5.249-7.747,10.521-15.479,15.743-23.245
	c2.307-3.431,2.557-3.291,5.816-0.609c5.644,4.644,9.105,11.056,13.729,16.513c5.519,6.512,11.237,12.896,16.096,20.006
	c3.873,5.667,8.899,10.017,16.549,10.529c5.109,0.342,10.397,1.272,15.127,3.147c5.507,2.183,11.21,3.442,16.848,3.638
	c23.127,0.804,45.99,3.99,69.099,5.062c24.862,1.153,49.732,2.131,74.608,2.935c49.752,1.607,99.526,2.516,149.303,2.726
	c15.914,0.067,31.829,0.063,47.743-0.013c14.632-0.07,28.035,1.795,42.546,3.005c23.052,3.281,46.04,3.081,69.34,4.379l74.647,4.16
	c49.765,2.773,99.53,5.547,149.295,8.32c47.806,2.664,96.993-0.557,143.805-12.761c18.09-4.716,35.825-10.798,52.999-18.184
	c6.455-2.776,13.196-6.115,18.125-11.252c7.507-7.824,9.263-21.442,11.817-31.457c3.391-13.294,6.887-26.56,10.487-39.799
	c9.072-33.352,18.063-67.059,29.647-99.64c5.005-17.19,12.321-33.584,18.661-50.313c2.257-5.956,4.938-11.802,7.971-17.402
	c7.02-12.958,14.372-25.735,21.591-38.585c0.391-0.695,0.713-1.449,1.208-2.06c1.843-2.271,6.576-3.417,9.391-2.272
	c2.829,1.151,1.58,3.725,1.906,5.735c2.424,14.94-2.645,31.168-3.923,46.086c-1.416,16.525-1.655,33.149-0.73,49.708
	c1.961,35.114,11.159,67.026,20.267,100.667c1.156,4.268,2.642,8.384,4.504,12.348c22.393,47.7,42.496,93.129,80.203,131.029
	c61.614,61.929,144.526,99.242,229.965,114.218c1.409,0.247,2.821,0.485,4.233,0.714c33.985,5.508,68.852,2.977,102.422-4.022
	c31.797-6.63,66.083-16.098,94.782-31.644c8.36-4.529,17.163-8.157,25.224-13.338c7.461-4.795,15.301-9.039,22.656-14.021
	c8.72-5.907,16.778-12.698,25.084-19.162c16.573-12.898,30.512-28.427,44.781-43.595c6.595-7.011,11.77-15.362,17.549-23.135
	c9.674-13.011,18.55-26.557,26.765-40.53c8.456-14.382,16.137-29.109,21.759-44.914
	C2605.906,1164.171,2614.401,1106.262,2609.835,1048.905z M592.702,848.539c1.268-1.725,1.88-4.122,4.324-4.436
	c2.513-0.322,4.932,1.026,6.513,2.557c8.056,7.8,15.872,15.856,22.445,25.281c-7.422,0.81-12.486-2.661-17.592-6.598
	c-4.7-3.624-9.963-6.509-14.905-9.829C589.412,852.778,589.576,852.792,592.702,848.539z M526.301,811.028
	c2.602-2.364,5.873-3.964,7.991-6.877c0.547-0.752,1.244-0.88,2.301-1.006c0.699,0.243,1.647,0.522,2.556,0.896
	c5.861,2.41,11.503,5.292,16.889,8.601c3.947,2.425,4.15,3.678,2.527,7.878c-4.295,11.111-4.919,11.256-16.049,7.135
	c-4.296-1.59-8.113-4.114-12.432-5.614c-1.448-0.503-2.798-1.545-3.944-2.609C522.829,816.359,522.895,814.121,526.301,811.028z
	 M376.975,799.291c3.58-3.118,7.827-4.829,12.207-5.912c9.993-2.47,20.087-4.547,30.178-6.599c2.108-0.429,4.378-0.062,6.573-0.062
	c-0.001-0.056-0.001-0.113-0.002-0.169c1.196-0.065,2.391-0.175,3.588-0.188c6.117-0.067,6.302,0.27,7.763,6.23
	c0.848,3.459,1.994,6.938,3.619,10.092c2.55,4.951,11.113,4.43,13.863-1.013c1.753-3.471,4.001-6.841,4.503-10.908
	c0.325-2.63,1.658-4.372,4.666-4.384c6.396-0.024,12.725,0.615,19.019,1.691c1.82,0.311,2.858,0.929,2.187,3.191
	c-0.502,1.693-0.614,3.443-1.542,5.08c-3.939,6.948-8.577,13.046-15.395,17.679c-6.138,4.17-9.456,10.95-12.896,17.455
	c-3.035,5.74-3.126,12.687-7.686,17.833c-1.012,1.142-0.937,3.403-1.038,5.167c-0.243,4.286-1.1,8.93-3.947,11.619
	c-3.226,3.047-3.545,5.715-2.559,9.363c0.134,0.495-0.01,1.289-0.344,1.654c-4.503,4.925-3.711,11.067-3.927,16.954
	c-0.182,4.973-2.181,6.862-6.878,6.284c-1.653-0.203-2.74-0.811-3.663-2.466c-6.394-11.459-13.346-22.623-19.346-34.279
	c-3.246-6.306-7.505-11.969-10.545-18.34c-4.082-8.555-9.572-16.27-14.255-24.448c-2.881-5.031-6.035-10.287-6.342-16.526
	C374.662,802.054,375.287,800.761,376.975,799.291z M224.148,969.045c1.585-9.671,5.192-18.763,7.959-28.1
	c2.606-8.795,6.672-16.796,11.252-24.69c2.762-4.762,4.311-10.188,7.243-14.978c5.665-9.255,12.021-17.997,18.386-26.77
	c6.37-8.78,14.103-16.154,21.878-23.557c1.443-1.374,2.69-2.931,4.87-3.242c1.263-0.18,2.451-1.056,2.391-2.305
	c-0.114-2.358,2.02-2.225,3.131-2.959c0.923-0.609,2.345-0.006,3.427-1.399c0.741-0.953,2.207-1.086,0.948-2.719
	c-0.2-0.26,0.735-0.706,1.326-0.839c6.051-1.37,5.869-1.518,10.623-7.521c1.676-2.116,4.644-3.11,7.532-2.34
	c3.372,0.9,6.869,1.796,8.873,5.111c0.409,0.677,0.974,1.844,1.551,1.294c3.768-3.59,3.645,1.144,4.566,2.329
	c3.765,4.836,5.789,10.718,8.808,16.031c3.984,7.01,8.649,13.615,12.237,20.884c4.654,9.425,9.944,18.537,15.332,28.469
	c-2.558,0.852-4.385,1.554-6.263,2.071c-22.135,6.092-40.822,17.846-57.092,33.924c-4.384,4.332-8.774,8.767-12.275,13.641
	c-3.74,5.207-8.067,10.187-10.81,16.031c-1.602,3.412-4.247,6.239-5.19,10.014c-0.39,1.561-1.724,2.444-3.619,2.524
	c-10.494,0.448-20.961,0.828-31.484,0.119c-6.517-0.439-13.059-0.192-19.488-1.739C224.405,976.919,223.148,975.146,224.148,969.045
	z M324.108,1149.077c-2.823,5.454-5.166,11.129-8.502,16.349c-3.969,6.211-6.916,12.997-10.11,19.636
	c-2.413,5.016-5.457,9.635-9.364,13.635c-3.337,3.416-5.23,3.593-8.482,0.24c-7.979-8.228-16.527-15.949-22.887-25.645
	c-1.51-2.302-4.078-3.989-5.286-6.397c-4.599-9.166-11.039-17.281-15.086-26.743c-0.543-1.27-1.232-2.483-1.131-3.969
	c0.178-2.614-0.558-4.773-3.345-5.631c-1.804-0.556-2.482-2.216-2.762-3.615c-0.772-3.869-2.995-7.232-3.294-11.313
	c-0.304-4.146-2.66-7.707-4.397-11.484c-3.526-7.669-7.303-15.732-6.313-24.365c0.687-5.986-0.678-11.375-1.576-17.008
	c-0.413-2.593-2.809-3.985-3.135-6.819c-0.594-5.162-0.343-10.324-0.768-15.468c-0.097-1.178,0.253-2.396,0.135-3.569
	c-0.783-7.836,2.164-12.001,9.996-12.894c6.91-0.788,13.893-1.046,20.866-0.32c5.379,0,10.757,0.03,16.136-0.008
	c6.829-0.048,7.469,0.562,6.97,7.534c-0.198,2.759-0.57,5.521-1.094,8.237c-0.996,5.161,1.612,9.731,2.331,14.606
	c1.998,13.555,5.108,26.866,10.688,39.512c2.644,5.991,6.474,11.293,9.265,17.188c3.665,7.742,9.986,13.491,15.747,19.522
	c4.199,4.396,8.34,9.054,13.777,12.192C325.076,1143.973,325.642,1146.113,324.108,1149.077z M516.26,1250.574
	c-1.656,1.406-3.464,2.791-5.682,3.182c-5.522,0.975-10.557,3.527-15.901,4.912c-5.243,1.359-10.551,3.555-16.286,1.671
	c-2.122-0.697-4.383,0.503-6.349,1.323c-5.073,2.115-10.299,3.018-15.751,3.018c-4.392,0-8.79,0.275-13.176,0.137
	c-4.075-0.128-8.141,0.211-11.801-2.882c-1.654-1.398-4.897-0.914-7.419-1.284c-9.877-0.064-19.76-0.061-29.498-1.507
	c-5.252-0.78-10.365-2.627-15.529-3.966c-7.939-2.06-15.272-5.586-22.822-8.499c-8.153-3.146-16.136-7.375-21.375-14.757
	c-2.097-2.954-2.897-7.402-0.699-10.761c3.861-5.898,5.49-12.774,9.065-18.769c3.149-5.28,6.144-10.677,8.787-16.223
	c1.349-2.832,3.027-3.257,5.683-2.548c3.463,0.924,6.971,1.68,10.448,2.552c8.685,2.178,16.616,0.922,23.375-5.272
	c1.89-1.732,4.292-2.064,6.506-2.885c7.331-2.719,15.066-2.452,22.704-2.854c0.59-0.031,1.262-0.035,1.774,0.206
	c11.157,5.243,21.425,0.776,31.72-2.95c5.768-2.087,11.692-3.866,16.873-7.322c1.442-0.962,2.499-0.913,3.302,0.851
	c5.402,11.856,13.758,21.812,20.824,32.605c5.767,8.809,10.662,18.211,15.6,27.532c3.067,5.79,5.146,12.053,7.455,18.199
	C519.163,1247.143,518.159,1248.961,516.26,1250.574z M657.378,1122.504c-1.873,5.042-4.458,9.767-6.728,14.633
	c-3.204,6.868-7.389,13.155-11.106,19.708c-3.022,5.327-6.563,10.437-10.419,15.202c-13.664,16.887-28.241,32.939-45.925,45.764
	c-4.463,3.237-9.766,5.306-14.636,7.996c-1.513,0.836-3.072,0.682-4.642,0.705c-5.587,0.147-8.238-4.054-10.215-7.984
	c-2.553-5.076-7.039-9.275-7.429-15.43c-0.056-0.876-0.88-1.783-1.521-2.529c-5.779-6.726-8.298-15.237-12.603-22.745
	c-4.159-7.255-6.657-15.463-12.368-21.839c-0.784-0.876-1.438-1.962-1.842-3.065c-0.86-2.348-3.781-5.018-2.176-6.938
	c1.999-2.392,5.15-5.27,8.639-4.589c7.15,1.394,13.683-0.72,20.514-1.848c4.127-0.681,8.649-1.23,12.956,2.157
	c4.53,3.563,10.677,2.455,16.196,1.957c12.454-1.125,24.868-2.646,37.322-3.816c11.049-1.038,21.078-5.536,27.823-14.475
	c4.554-6.035,10.5-5.6,16.409-6.34C657.852,1118.75,657.958,1120.94,657.378,1122.504z M1204.294,716.258
	c-3.336,2.513-7.022,3.776-11.171,3.041c-9.364-1.66-18.882-2.293-28.18-4.434c-5.21-1.2-10.507-2.138-15.815-2.757
	c-2.865-0.334-4.572-2.012-6.885-3.843c1.922-1.726,3.591-1.128,5.063-1.085c18.115,0.529,36.227-0.12,54.34-0.056
	c2.282,0.008,5.246-0.843,6.158,2.188C1208.736,712.409,1206.641,714.49,1204.294,716.258z M1667.942,1128.711
	c0.112,6.593-3.504,9.264-9.536,6.62c-5.087-2.23-10.037-4.884-14.474-8.299c-3.432-2.641-3.546-3.388-1.427-6.937
	c3.475-5.82,8.31-10.679,11.747-16.549c0.872-1.49,2.405-2.56,4.411-2.772c2.027-0.214,3.573,0.086,4.218,2.248
	C1665.386,1111.417,1668.568,1119.674,1667.942,1128.711z M2004.259,388.073c-3.085,3.372-5.134,7.389-7.649,11.098
	c-3.283,4.843-3.93,10.23-2.279,15.965c1.264,4.391,2.084,8.785,5.534,12.309c3.266,3.337,2.623,8.626-1.361,11.197
	c-5.169,3.336-10.471,6.521-16.191,8.914c-1.838,0.769-2.919,0.232-3.816-1.448c-1.681-3.145-3.574-6.178-5.216-9.341
	c-3.943-7.597-7.847-15.215-11.655-22.879c-2.058-4.143-1.53-5.754,2.289-8.451c0.489-0.345,0.968-0.705,1.469-1.032
	c4.756-3.102,5.377-5.095,3.298-10.404c-1.449-3.7-3.006-7.368-4.241-11.14c-1.55-4.733-0.832-6.389,3.291-8.923
	c4.048-2.488,8.435-4.438,11.995-7.701c1.42-1.302,3.25-1.936,4.972-0.924c6.46,3.798,13.727,6.083,19.708,10.819
	c1.958,1.55,2.654,3.309,2.829,6.301C2006.493,383.901,2005.807,386.381,2004.259,388.073z M2095.885,916.474
	c1.542,2.763,2.865,5.66,4.556,8.325c1.322,2.083,1.254,3.572-0.755,5.088c-4.788,3.614-9.042,7.826-12.997,12.309
	c-1.589,1.801-3.129,2.22-5.167,1.192c-8.133-4.106-16.359-8.056-23.447-13.922c-1.751-1.449-1.851-3.401-1.696-5.452
	c0.152-2.014,0.401-4.081,1.635-5.679c7.135-9.244,14.364-18.416,24.078-25.8C2087.508,900.297,2091.452,908.531,2095.885,916.474z
	 M2031.658,471.049c2.468-2.206,4.791-4.961,7.718-6.189c6.871-2.882,8.933-8.33,8.684-14.844
	c-0.448-11.727,0.968-23.551-1.637-35.181c-0.119-0.529,0.145-1.144,0.359-2.591c5.061,2.733,7.59,6.815,9.836,10.877
	c4.517,8.172,8.771,16.5,12.844,24.903c2.852,5.883,5.188,12.014,7.832,18c1.043,2.363,2.322,4.62,3.448,6.948
	c1.813,3.749,1.136,5.69-2.812,6.421c-2.087,0.387-3.742,1.387-5.43,2.318c-6.867,3.787-13.686,3.467-20.508,0.092
	c-3.723-1.842-7.109-3.863-11.781-2.887c-3.046,0.637-5.837-2.101-8.483-3.762C2030.117,474.144,2030.253,472.306,2031.658,471.049z
	 M2052.179,989.541c-2.828,5.884-6.01,11.522-10.099,16.652c-1.876,2.355-2.806,5.188-3.217,8.227
	c-1.401,10.368-10.401,2.935-17.743,5.93c-1.593,0.65-3.156,1.589-4.876,1.554c-2.49-0.051-4.542-2.244-5.173-4.653
	c-2.71-10.348,7.052-29.601,11.463-38.717c4.958-10.245,8.77-11.851,19.36-8.246c4.934,1.68,9.146,4.822,13.913,6.835
	c2.199,0.929,1.48,2.648,0.831,4.015C2055.279,983.999,2053.552,986.685,2052.179,989.541z M2210.037,1300.39
	c-2.534,6.584-6.326,9.615-13.482,8.901c-0.593-0.059-1.197-0.008-1.795-0.008c-12.498-0.465-24.282-3.914-35.927-8.222
	c-15.935-5.896-31.015-13.487-45.216-22.719c-12.155-7.901-23.502-16.865-33.755-27.232c-7.156-7.236-14.046-14.67-20.489-22.533
	c-2.949-3.6-2.965-3.641,0.429-6.955c2.536-2.476,3.963-5.42,4.375-8.943c0.202-1.732-0.029-4.093,1.889-4.734
	c2.135-0.713,3.605,1.378,4.94,2.701c3.81,3.774,7.623,7.541,11.455,11.292c6.36,6.227,14.5,8.246,22.655,9.865
	c4.484,0.89,8.457,2.507,11.941,5.057c12.137,8.885,25.56,15.349,39.465,20.691c11.5,4.417,23.442,7.684,35.725,9.322
	c5.106,0.681,10.115,2.21,15.351,1.827c1.996-0.146,2.894,0.881,2.995,2.825c0.352,6.745,0.789,13.486,1.09,20.234
	C2211.814,1294.738,2211.147,1297.509,2210.037,1300.39z M2417.799,1224.63c-5.187,7.816-9.365,16.342-16.779,22.568
	c-4.396,3.692-8.862,7.489-12.74,11.581c-4.137,4.365-8.739,7.905-13.349,11.578c-6.37,5.075-13.438,9.099-20.187,13.605
	c-7.29,4.867-15.193,8.505-23.072,12.218c-3.236,1.525-6.407,3.279-10.101,3.464c-1.227,0.061-2.106,0.577-3.146,1.297
	c-2.775,1.922-5.942,3.201-9.358,3.489c-1.617,0.136-3.158,0.399-4.628,1.045c-10.109,4.443-20.781,6.319-31.717,7.087
	c-3.072,0.215-5.852-0.794-8.665-1.652c-3.731-1.139-5.923-3.436-6.22-7.674c-0.544-7.761-1.431-15.495-1.697-23.281
	c-0.087-2.552,0.491-3.629,3.32-3.358c3.161,0.303,6.373,0.07,9.563,0.07c9.392,0.179,18.718-1.095,27.946-2.355
	c8.893-1.214,17.738-3.392,26.249-6.651c5.943-2.276,12.163-3.852,17.895-6.682c8.887-4.387,17.909-8.432,26.382-13.727
	c11.038-6.899,20.858-15.168,30.435-23.853c3.421-3.102,6.261-6.714,9.493-9.968c2.524-2.541,3.999-2.512,6.467-0.024
	c2.305,2.324,2.805,5.648,4.391,8.387C2418.657,1222.446,2418.299,1223.876,2417.799,1224.63z M2424.444,947.761
	c-0.544,0.584-1.048,1.224-1.666,1.72c-1.977,1.585-3.137,4.472-5.941,4.67c-2.93,0.206-3.254-3.144-5.062-4.56
	c-3.15-2.466-5.823-5.378-8.487-8.366c-6.524-7.317-11.226-13.402-19.377-19.425c-8.244-6.091-16.878-11.654-25.827-16.651
	c-14.632-8.17-30.113-14.836-46.119-19.807c-9.351-2.904-10.197-2.864-12.905-12.135c-2.379-8.147-5.459-16.127-6.319-24.638
	c-0.163-1.604-2.087-2.834-3.265-3.391c5.627-11.988,56.049,18.506,63.144,22.202c12.113,6.311,22.707,14.798,32.739,23.799
	c8.07,7.241,16.274,14.402,23.117,23.128c4.853,6.189,9.672,12.428,14.341,18.765c1.384,1.878,2.341,4.138,3.167,6.345
	C2427.105,942.415,2426.73,945.309,2424.444,947.761z M2442.007,991.887c1.919-0.495,3.882-0.848,5.842-1.147
	c2.465-0.377,6.701,1.343,6.887,3.549c0.412,4.898,4.166,8.11,5.388,12.491c2.116,7.582,4.772,15.052,4.805,23.073
	c0.021,5.152-0.359,10.34,1.173,14.391c-0.102,4.55-3.228,8.654-6.792,9.994c-1.428,0.537-2.35,0.049-2.756-1.275
	c-0.406-1.326-0.693-2.711-0.838-4.09c-0.922-8.74-3.103-17.285-5.851-25.507c-3.02-9.038-5.332-18.398-9.833-26.934
	C2438.6,993.712,2439.212,992.608,2442.007,991.887z M2469.577,1103.319c-0.035,3.404-1.236,6.631-1.847,9.923
	c-1.807,9.725-2.478,19.666-5.622,29.158c-3.052,9.213-5.952,18.472-10.456,27.104c-2.514,4.816-5.481,6.103-10.871,5.067
	c-1.355-0.261-2.668-0.739-4.522-1.265c0.252-0.998,0.215-1.73,0.562-2.093c4.554-4.765,5.744-11.256,8.153-16.986
	c2.516-5.985,4.225-12.377,6.94-18.348c0.551-1.213,0.086-2.347,0.188-3.508c0.313-3.549,0.25-7.341,2.198-10.364
	c2.536-3.937,2.527-8.329,2.562-12.504c0.027-3.318,0.146-6.264,1.984-9.053c0.539-0.818,1.142-1.803,0.778-2.797
	c-1.934-5.28-0.513-10.452,0.341-15.657c0.191-1.161,0.146-2.361,0.217-3.667c2.094-0.234,3.781,0.914,5.558,1.623
	c2.688,1.073,4.008,3.144,3.984,6.052C2469.675,1091.777,2469.636,1097.548,2469.577,1103.319z"/>
</svg>
